<svg width="24" height="21" viewBox="0 0 24 21" fill="none" xmlns="http://www.w3.org/2000/svg">
<path fill-rule="evenodd" clip-rule="evenodd" d="M1.50002 0C1.10219 0 0.720654 0.158037 0.439346 0.439346C0.158037 0.720654 0 1.10219 0 1.50002V19.5003C0 19.8981 0.158037 20.2796 0.439346 20.5609C0.720654 20.8422 1.10219 21.0003 1.50002 21.0003C1.89785 21.0003 2.27939 20.8422 2.56069 20.5609C2.842 20.2796 3.00004 19.8981 3.00004 19.5003V1.50002C3.00004 1.10219 2.842 0.720654 2.56069 0.439346C2.27939 0.158037 1.89785 0 1.50002 0ZM16.9397 13.9397C16.6665 14.2226 16.5153 14.6015 16.5187 14.9948C16.5221 15.3881 16.6799 15.7643 16.958 16.0424C17.2361 16.3206 17.6123 16.4783 18.0056 16.4817C18.3989 16.4851 18.7778 16.334 19.0608 16.0607L23.5608 11.5607C23.842 11.2794 24 10.8979 24 10.5001C24 10.1024 23.842 9.72092 23.5608 9.43963L19.0608 4.93957C18.9224 4.7963 18.7569 4.68202 18.5739 4.60341C18.3908 4.52479 18.194 4.48341 17.9948 4.48168C17.7957 4.47995 17.5981 4.51791 17.4138 4.59333C17.2295 4.66875 17.062 4.78013 16.9211 4.92097C16.7803 5.06181 16.6689 5.22929 16.5935 5.41364C16.5181 5.59799 16.4801 5.79551 16.4818 5.99468C16.4836 6.19385 16.525 6.39069 16.6036 6.57369C16.6822 6.7567 16.7965 6.92222 16.9397 7.06059L18.8793 9.00012H7.5001C7.10227 9.00012 6.72073 9.15816 6.43943 9.43947C6.15812 9.72077 6.00008 10.1023 6.00008 10.5001C6.00008 10.898 6.15812 11.2795 6.43943 11.5608C6.72073 11.8421 7.10227 12.0002 7.5001 12.0002H18.8793L16.9397 13.9397Z" fill="#23268C"/>
</svg>
